/* XPM */
static char *tinyerp-icon-64x64[] = {
/* columns rows colors chars-per-pixel */
"64 64 93 2",
"   c #000000",
".  c #0B0B0B",
"X  c #141414",
"o  c #191919",
"O  c #272727",
"+  c #323232",
"@  c #3A3A3A",
"#  c #6F3F46",
"$  c gray26",
"%  c #515151",
"&  c gray35",
"*  c #634A4E",
"=  c #774D53",
"-  c #666666",
";  c #6D6D6D",
":  c #767676",
">  c #7C7C7C",
",  c #F20023",
"<  c #F20628",
"1  c #F20A2B",
"2  c #F20F30",
"3  c #F21434",
"4  c #F31B3A",
"5  c #F3203F",
"6  c #F32341",
"7  c #F32846",
"8  c #F42D4A",
"9  c #F4314D",
"0  c #F43551",
"q  c #F43954",
"w  c #F43E59",
"e  c #EA435B",
"r  c #F4435D",
"t  c #F54660",
"y  c #F54B64",
"u  c #F5566D",
"i  c #F6586F",
"p  c #F65C72",
"a  c #F76076",
"s  c #F6667B",
"d  c #F7697D",
"f  c #F76D81",
"g  c #F86C80",
"h  c #F77285",
"j  c #F77789",
"k  c #F77C8E",
"l  c #F87084",
"z  c #F8798B",
"x  c #F87D90",
"c  c #818181",
"v  c gray55",
"b  c #939393",
"n  c #9A9A9A",
"m  c #A7A7A7",
"M  c #AAAAAA",
"N  c #B1B1B1",
"B  c #BABABA",
"V  c #DD8B97",
"C  c #E28C99",
"Z  c #E8929E",
"A  c #F88092",
"S  c #F9909F",
"D  c #F59EAB",
"F  c #F993A2",
"G  c #F99EAB",
"H  c #F9A0AD",
"J  c #F9A4B0",
"K  c #FAAAB6",
"L  c #FAADB8",
"P  c #FAB1BC",
"I  c #FBBBC4",
"U  c #FBBFC8",
"Y  c #C5C5C5",
"T  c gray80",
"R  c gray84",
"E  c #DBDBDB",
"W  c #FBC3CB",
"Q  c #FBCBD2",
"!  c #FCD1D7",
"~  c #FCD5DA",
"^  c #FCD9DF",
"/  c #FCDCE1",
"(  c #E3E3E3",
")  c #EBEBEB",
"_  c #FDE2E6",
"`  c #FDE5E9",
"'  c #FDEAEC",
"]  c #FDEEF0",
"[  c #F4F4F4",
"{  c #FEF2F3",
"}  c #FEF7F8",
"|  c #FEFEFE",
" . c None",
/* pixels */
" . . . . . . . . . .| | | | | | | | | | | | | | | | | | | | | | | | | | | | | | | | | | | | | | | | | | | |  . . . . . . . . . .",
" . . . . . . .| | | | | | | | | | | | | | | | | | | | | | | | | | | | | | | | | | | | | | | | | | | | | | | | | |  . . . . . . .",
" . . . . . .| | | | | | | | | | | | | | | | | | | | | | | | | | | | | | | | | | | | | | | | | | | | | | | | | | | |  . . . . . .",
" . . . . .| | | | | | | | | | | | | | | | | | | | | | | | | | | | | | | | | | | | | | | | | | | | | | | | | | | | | |  . . . . .",
" . . . .| | | | | | | | | | | | | | | | | | | | | | | | | | | | | | | | | | | | | | | | | | | | | | | | | | | | | | | |  . . . .",
" . . .| | | | | | | | | | | | | | | | | | | | | | | | | | | | | | | | | | | | | | | | | | | | | | | | | | | | | | | | | |  . . .",
" . .| | | | | | | | | | | | | | | | | | | | | | | | | | | | | | | | | | | | | | | | | | | | | | | | | | | | | | | | | | | |  . .",
" .| | | | | | | | | | | | | | | | | | | | | | | | | | | | | | | | | | | | | | | | | | | | | | | | | | | | | | | | | | | | | |  .",
" .| | | | | | | | | | | | | | | | | | | | | | | | | | | | | | | | | | | | | | | | | | | | | | | | | | | | | | | | | | | | | |  .",
" .| | | | | | | | | | | | | | | | | | | | | | | | | | | | | | | | | | | | | | | | | | | | | | | | | | | | | | | | | | | | | |  .",
"| | | | | | | | | | | | | | | | | | | | | | | | | | | | | | | | | | | | | | | | | | | | | | | | | | | | | | | | | | | | | | | | ",
"| | | | | | | | | | | | | | | | | | | | | | | | | | | | | | | | | | | | | | | | | | | | | | | | | | | | | | | | | | | | | | | | ",
"| | | | | | | | | | | | | | | | | | | | | | | | | | | | | | | | | | | | | | | | | | | | | | | | | | | | | | | | | | | | | | | | ",
"| | | | | / K Q Q | | | | | | | | | ` ! Q H } | | | | | | | | | | | | | | | | | | | | | | | ( N E | | | | | | | | | | | | | | | ",
"| | | | | s , , , 4 6 4 , , , 2 6 6 1 , , , ] | H h ^ | | | | | | | B ; ; b ) | | | [ c $ X     . | ( : : R | | : c | | | | | | ",
"| | | | } 3 < s / | | | w , , ' | | | W q , ' | < , y | | | | | [ &         . v [ | -             N .     . > Y . . c | | | | | ",
"| | | | W 1 W | | | | | u , , { | | | | { 3 G | 5 , f | | | | | >               % )                           o : E . m | | | | ",
"| | | | j S | | | | | | u , , { | | | | | U u | | ^ | | | | | ( .                 X               T %           E | B . B | | | ",
"| | | | ^ | | | | | | | u , < { | | | | | } Q | | | | | | | | ;                 + n -         c > @ | ( O       o | | B   Y | | ",
"| | | | | | | | | | | | u , , { | | | | | | | | | | | | | | | ; .   . @ b R ) [ | | [ - ( ( ) m [ ) Y | | [ ) c o | | | v . T | ",
"| | | | | | | | | | | | u , , { | | | | | | | | | D u | | | | [ D e } G w 0 u / | [ # C Q Q W C * | = V Q Q J W ( | | | [ + B | ",
"| | | | | | | | | | | | u , < { | | | | | | ~ s 5 , w | | ' f 7 , 5 y , , , , 3 Q | W q , , , i ~ | W q , , r P | | | | | [ | | ",
"| | | | | | | | | | | | u , , { | | | | | | Q i , , t | | ] f 1 , , d { | P 1 , r | | | q , 4 | | | | } , p | | | | | | | | | | ",
"| | | | | | | | | | | | u , , { | | | | | | | | 7 , u | | | | r , w | | | | y , 6 | | | ^ , , Q | | | S < / | | | | | | | | | | ",
"| | | | | | | | | | | | u , < { | | | | | | | | 8 , u | | | | r , r | | | | A , 4 | | | | 9 , s | | | 4 f | | | | | | | | | | | ",
"| | | | | | | | | | | | u , , { | | | | | | | | 8 , u | | | | r , r | | | | A , 3 | | | | x , 4 | | U , ~ | | | | | | | | | | | ",
"| | | | | | | | | | | | u , , ] | | | | | | | | 8 , u | | | | r , r | | | | x , 3 | | | | ' < , G | 3 r | | | | | | | | | | | | ",
"| | | | | | | | | | | | u , < { | | | | | | | | 9 , u | | | | r , r | | | | x , 3 | | | | | y , 9 ! , ~ | | | | | | | | | | | | ",
"| | | | | | | | | | | | u , < { | | | | | | | | 8 , u | | | | r , r | | | | A , 4 | | | | | H , < q 6 } | | | | | | | | | | | | ",
"| | | | | | | | | | | | q , , ' | | | | | | | | 7 , u | | | | r , 0 | | | | f , 3 | | | | | } 1 , , ~ | | | | | | | | | | | | | ",
"| | | | | | | | | | ^ F , , , r Q { | | | | } W , , 6 ^ | | ~ 3 , 2 / | | ` 9 , , K } | | | | f , 4 | | | | | | | | | | | | | | ",
"_ _ _ _ _ _ _ _ _ I , , 1 1 < , , s _ _ _ _ x , 1 1 < , _ _ , < 1 < 1 _ _ 6 < 1 1 , k _ _ _ _ P 4 D _ _ _ _ _ _ _ _ _ _ _ _ _ _ ",
", , , , , , , , , , , , , , , , , , , , , , , , , , , , , , , , , , , , , , , , , , , , , , , p ] , , , , , , , , , , , , , , , ",
", , , , , , , , , , , , , , , , , , , , , , , , , , , , , , , , , , , , , , , , , , , , , , , _ K , , , , , , , , , , , , , , , ",
", , , , , , , , , , , , , , , , , , , , , , , , , , , , , , , , , , , , , , , , , , , , , , p } 3 , , , , , , , , , , , , , , , ",
", , , , , , , , , , , , , , , , , , , , , , , , , , , , , , , , , , , , , , , , , , , , , , W L , , , , , , , , , , , , , , , , ",
", , , , , , , , , , , , , , , , , , , , , , , , , , , , , , , , , , , , , , , , , , , r f h | 9 , , , , , , , , , , , , , , , , ",
", , , , , , , , , , , , , , , , , , , , , , , , , , , , , , , , , , , , , , , , , , 1 } | | P , , , , , , , , , , , , , , , , , ",
", , , , , , , , , , , , , , , , , , , , , , , , , , , , , , , , , , , , , , , , , , 1 _ | ' 5 , , , , , , , , , , , , , , , , , ",
", , , , , , , , , , , , , , , , , , , , , , , , , , , , , , , , , , , , , , , , , , , , , , , , , , , , , , , , , , , , , , , , ",
", , , , , , , , , | | | | | | | | | | | | 1 , , , | | | | | | | } _ I f 1 < , , , , , | | | | | | | | ] W A 4 , , , , , , , , , ",
", , , , , , , , , | | | | | | | | | | | | < , , , | | | | | | | | | | | _ 8 , , , , , | | | | | | | | | | | { u , , , , , , , , ",
", , , , , , , , , | | | | | | | | | | | | < , , , | | | | | | | | | | | | Q , , , , , | | | | | | | | | | | | | q , , , , , , , ",
", , , , , , , , , | | | | a , , , , , , , , , , , | | | | a , , 6 I | | | | 9 , , , , | | | | a , , 1 p } | | | U , , , , , , , ",
", , , , , , , , , | | | | a , , , , , , , , , , , | | | | a , , , 5 | | | | u , , , , | | | | a , , , , z | | | | 1 , , , , , , ",
", , , , , , , , , | | | | a , , , , , , , , , , , | | | | a , , , < | | | | u , , , , | | | | a , , , , 0 | | | | 7 , , , , , , ",
", , , , , , , , , | | | | a , , , , , , , , , , , | | | | a , , , 6 | | | | 7 , , , , | | | | a , , , , 9 | | | | 7 , , , , , , ",
", , , , , , , , , | | | | | | | | | | | F , , , , | | | | a , , 7 I | | | W , , , , , | | | | a , , , , z | | | | 1 , , , , , , ",
", , , , , , , , , | | | | | | | | | | | F , , , , | | | | | | | | | | | ^ 6 , , , , , | | | | a , , 1 p } | | | I , , , , , , , ",
", , , , , , , , , | | | | | | | | | | | F , , , , | | | | | | | | | | P 1 , , , , , , | | | | | | | | | | | | | q , , , , , , , ",
", , , , , , , , , | | | | a , , , , , , , , , , , | | | | | | | | | | | H , , , , , , | | | | | | | | | | | } u , , , , , , , , ",
", , , , , , , , , | | | | i , , , , , , , , , , , | | | | p , 4 H | | | | f , , , , , | | | | | | | | ' W A 4 , , , , , , , , , ",
", , , , , , , , , | | | | a , , , , , , , , , , , | | | | a , , < Q | | | ] 1 , , , , | | | | a , , , , , , , , , , , , , , , , ",
", , , , , , , , , | | | | a , , , , , , , , , , , | | | | a , , , r | | | | z , , , , | | | | a , , , , , , , , , , , , , , , , ",
" ., , , , , , , , | | | | a , , , , , , , , , , , | | | | a , , , , Q | | | ` 1 , , , | | | | a , , , , , , , , , , , , , , ,  .",
" ., , , , , , , , | | | | | | | | | | | | y , , , | | | | a , , , , u | | | | d , , , | | | | a , , , , , , , , , , , , , , ,  .",
" ., , , , , , , , | | | | | | | | | | | | y , , , | | | | p , , , , , / | | | / , , , | | | | p , , , , , , , , , , , , , , ,  .",
" . ., , , , , , , | | | | | | | | | | | | y , , , | | | | p , , , , , d | | | | i , , | | | | p , , , , , , , , , , , , , ,  . .",
" . . ., , , , , , , , , , , , , , , , , , , , , , , , , , , , , , , , , , , , , , , , , , , , , , , , , , , , , , , , , ,  . . .",
" . . . ., , , , , , , , , , , , , , , , , , , , , , , , , , , , , , , , , , , , , , , , , , , , , , , , , , , , , , , ,  . . . .",
" . . . . ., , , , , , , , , , , , , , , , , , , , , , , , , , , , , , , , , , , , , , , , , , , , , , , , , , , , , ,  . . . . .",
" . . . . . ., , , , , , , , , , , , , , , , , , , , , , , , , , , , , , , , , , , , , , , , , , , , , , , , , , , ,  . . . . . .",
" . . . . . . ., , , , , , , , , , , , , , , , , , , , , , , , , , , , , , , , , , , , , , , , , , , , , , , , , ,  . . . . . . .",
" . . . . . . . . . ., , , , , , , , , , , , , , , , , , , , , , , , , , , , , , , , , , , , , , , , , , , ,  . . . . . . . . . ."
};
