/* XPM */
static char *tinyerp-icon-16x16[] = {
/* columns rows colors chars-per-pixel */
"16 16 49 1",
"  c black",
". c #020000",
"X c #070000",
"o c #170000",
"O c #1F0000",
"+ c #210000",
"@ c #250000",
"# c #2E0000",
"$ c #380000",
"% c #590000",
"& c #600000",
"* c #620000",
"= c #860000",
"- c #880000",
"; c #940000",
": c #9F0000",
"> c #A00000",
", c #A40000",
"< c #A90000",
"1 c #AC0000",
"2 c #AD0000",
"3 c #AF0000",
"4 c #B20000",
"5 c #BD0000",
"6 c #C20000",
"7 c #C50000",
"8 c #CC0000",
"9 c #D50000",
"0 c #DC0000",
"q c #DE0000",
"w c #DF0000",
"e c #E30000",
"r c #E50000",
"t c #E90000",
"y c #EB0000",
"u c #EC0000",
"i c #ED0000",
"p c #EE0000",
"a c #F10000",
"s c #F20000",
"d c #F40000",
"f c #F70000",
"g c #F80000",
"h c #F90000",
"j c #FA0000",
"k c #FB0000",
"l c #FE0000",
"z c red",
"x c None",
/* pixels */
"xxxxxxxxxxxxxxxx",
"xxllhhhhhhhhhs  ",
"xxlllpsllhrhls  ",
"xxll3 ;ll7 *f0  ",
"xxhpX =ll3  50  ",
"xxh7  :ll1  -t  ",
"xx9%  6ll1  #:  ",
"xx    0ll1      ",
"xx    tll1      ",
"xxx   sll,      ",
"xxxxxxfll1    xx",
"xxxxxxfll1    xx",
"xxxxxxfll4    xx",
"xxxxlllllhe3   x",
"xxxx8,*$@O+o   x",
"xxxx           x"
};
