/* XPM */
static char * openerp_client_xpm[] = {
"32 32 162 2",
"  	c None",
". 	c #DB2925",
"+ 	c #DA2824",
"@ 	c #D9201C",
"# 	c #E66F6C",
"$ 	c #E35D5A",
"% 	c #F5C6C5",
"& 	c #F1ACAB",
"* 	c #EFA29F",
"= 	c #F0A3A2",
"- 	c #F2B7B5",
"; 	c #F5C3C2",
"> 	c #E25653",
", 	c #D91F1B",
"' 	c #DA231F",
") 	c #E1514E",
"! 	c #F1B0AF",
"~ 	c #FDF7F7",
"{ 	c #FFFFFF",
"] 	c #FDF3F3",
"^ 	c #F8D5D4",
"/ 	c #DF3935",
"( 	c #DA2723",
"_ 	c #E04541",
": 	c #F7D0CF",
"< 	c #FEFCFC",
"[ 	c #F0A8A6",
"} 	c #DF403C",
"| 	c #DE3F3B",
"1 	c #DB2C28",
"2 	c #DC2F2B",
"3 	c #D82622",
"4 	c #DF4441",
"5 	c #EB8B88",
"6 	c #FEFEFE",
"7 	c #F9FAFA",
"8 	c #E99D9B",
"9 	c #DA1E19",
"0 	c #D91E1A",
"a 	c #E78F8D",
"b 	c #FBFDFD",
"c 	c #FADFDF",
"d 	c #DD3834",
"e 	c #DA2521",
"f 	c #E14C48",
"g 	c #F5C5C4",
"h 	c #D81C18",
"i 	c #DA2622",
"j 	c #F6CDCC",
"k 	c #F8DAD9",
"l 	c #DA2420",
"m 	c #E35855",
"n 	c #D59C9B",
"o 	c #DA241F",
"p 	c #DD2F2B",
"q 	c #FAE7E7",
"r 	c #D81C17",
"s 	c #F0A7A5",
"t 	c #E56562",
"u 	c #D9231E",
"v 	c #E2A9A7",
"w 	c #E45F5C",
"x 	c #E14E4A",
"y 	c #F9DEDD",
"z 	c #DA2823",
"A 	c #E97D7B",
"B 	c #F4BEBD",
"C 	c #D9221E",
"D 	c #DB2B27",
"E 	c #FDF5F5",
"F 	c #FEFBFB",
"G 	c #DE3D39",
"H 	c #DB2824",
"I 	c #FDF2F2",
"J 	c #E04642",
"K 	c #D91D19",
"L 	c #FEF7F7",
"M 	c #EA8583",
"N 	c #EB8A87",
"O 	c #F9DBDB",
"P 	c #D9211D",
"Q 	c #E7A5A4",
"R 	c #FDF6F6",
"S 	c #EB8C8A",
"T 	c #EB8987",
"U 	c #FFF9F8",
"V 	c #E66C69",
"W 	c #DF3F3B",
"X 	c #DB2723",
"Y 	c #E88E8C",
"Z 	c #FCF2F2",
"` 	c #F2B9B8",
" .	c #F7CFCE",
"..	c #FAE2E2",
"+.	c #FDF5F6",
"@.	c #FBE9E9",
"#.	c #F1ADAB",
"$.	c #F8D7D7",
"%.	c #F4BCBB",
"&.	c #DA2520",
"*.	c #FEFAFA",
"=.	c #D05451",
"-.	c #DF433F",
";.	c #DE3C39",
">.	c #DB2420",
",.	c #FAFAFA",
"'.	c #E66966",
").	c #E56865",
"!.	c #FDF8F8",
"~.	c #E87572",
"{.	c #E98A88",
"].	c #FCF0F0",
"^.	c #FDF9F9",
"/.	c #E97D7A",
"(.	c #FAE3E3",
"_.	c #E76F6C",
":.	c #E87976",
"<.	c #DB2E2A",
"[.	c #EC9492",
"}.	c #F5C4C2",
"|.	c #EE9B99",
"1.	c #EFC7C6",
"2.	c #DC2925",
"3.	c #EA8683",
"4.	c #F5C6C4",
"5.	c #D9211C",
"6.	c #F3B9B8",
"7.	c #E1504C",
"8.	c #DF4541",
"9.	c #E66D6A",
"0.	c #E2514E",
"a.	c #F0A6A4",
"b.	c #D9221D",
"c.	c #DC2F2C",
"d.	c #FDF4F4",
"e.	c #EB8A88",
"f.	c #E87270",
"g.	c #F7D4D3",
"h.	c #DE3935",
"i.	c #EC908E",
"j.	c #F3B7B6",
"k.	c #DF423F",
"l.	c #DB2D29",
"m.	c #DC322F",
"n.	c #E04A46",
"o.	c #F09F9D",
"p.	c #F9FBFB",
"q.	c #E78987",
"r.	c #DC302D",
"s.	c #E45E5B",
"t.	c #FADEDE",
"u.	c #F7D5D4",
"v.	c #F5C4C3",
"w.	c #F0DFDF",
"x.	c #DF3D39",
"y.	c #EE9A98",
"z.	c #FCEFEE",
"A.	c #FCF2F1",
"B.	c #FCF1F1",
"C.	c #C6B5B5",
"D.	c #E66B68",
"E.	c #DA2621",
". . . . . . . . . . . . . . . . . . . . . . . . . . . . . . . . ",
". . . . . . . . . . . . . . . . . . . . . . . . . . . . . . . . ",
". . . . . . . . . . . . + @ # $ % & * = - ; > , + . . . . . . . ",
". . . . . . . . . . ' ) ! ~ { { { { { { { { { ] ^ / ( . . . . . ",
". . . . . . . . + _ : < { { [ } | 1 2 3 4 5 { 6 { 7 8 9 . . . . ",
". . . . . . . 0 a b { { c d e . . . . . . e f { 6 6 { g h . . . ",
". . . . . . i j { 6 { k l . . . . . . . . . + m { { { { n o . . ",
". . . . . p q { { 6 ] r . . . . . . . . . . . ' s { { 6 { t . . ",
". . . . u v { { { < w . . . . . . . . . . . . . x { { { { y e . ",
". . . z A { { { { B C . . . . . . . . . . . . . D E { { { F G . ",
". . . H I 6 { { { J . . . . . . . . . . . . . . K L { { { { M . ",
". . + N { { { 6 O 0 . . . . . . . . . . . . . . P : { { { { Q . ",
". . P R 6 { { { S i . . . . . . . . . . . . . . + T { { { 6 U i ",
". . V { { { { { W . . . . . . . . . . . . . . . X Y { { { { Z ( ",
". + ` { { { { Z h . . . . . . . . . . . . . . . P  .{ { { { ] i ",
". ( ] 6 { { { .., . . . . . . . . . . . . . . . K +.{ { { { @.. ",
". ' 6 { { { { #.l . . . . . . . . . . . . . . . @ $.{ { { { %.. ",
". &.*.{ { { { =.+ . . . . . . . . . . . . . . . -.{ { { { { ;.. ",
". >.,.{ { { { '.. . . . . . . . . . . . . . . . ).{ { { { !.+ . ",
". u { { { { { ~.. . . . . . . . . . . . . . . i {.{ { { 6 ].e . ",
". e ^.{ { { { /.. . . . . . . . . . . . . . . K (.6 { { { _.. . ",
". l < { { { { :.. . . . . . . . . . . . . . . <.{ { { 6 Z D . . ",
". ( ] { { { { ).. . . . . . . . . . . . . . i #.{ { { { [.+ . . ",
". z }.{ { { { |.e . . . . . . . . . . . . . <.{ { { { 1.2.. . . ",
". . 3.{ { { { 4.5.. . . . . . . . . . . . ' 6.{ { 6 !.7.. . . . ",
". . , !.6 { { ~ 8.. . . . . . . . . . . ( 9.F { 6 E G . . . . . ",
". . . 0.{ 6 { { a.b.. . . . . . . . . ( c.d.6 { < | . . . . . . ",
". . . i e.{ 6 { { N C . . . . . . . e f.d.6 { g.h.. . . . . . . ",
". . . . + i.{ { { { j.k.l.e e e m.n.o.p.{ { q.r.. . . . . . . . ",
". . . . . + s.t.,.{ { { u.j v.w.{ { { Z % + + . . . . . . . . . ",
". . . . . . . e x.y.u.z.~ R A.B.C. .D.C + . . . . . . . . . . . ",
". . . . . . . . . . ( + e E.( ( ( . . . . . . . . . . . . . . . "};
