/* XPM */
static char *tinyerp-icon-32x32[] = {
/* columns rows colors chars-per-pixel */
"32 32 92 1",
"  c black",
". c #010000",
"X c #020000",
"o c #0A0000",
"O c #0F0000",
"+ c #100000",
"@ c #110000",
"# c #130000",
"$ c #180000",
"% c #190000",
"& c #210000",
"* c #250000",
"= c #2A0000",
"- c #2E0000",
"; c #340000",
": c #350000",
"> c #360000",
", c #370000",
"< c #380000",
"1 c #3A0000",
"2 c #3C0000",
"3 c #3D0000",
"4 c #400000",
"5 c #470000",
"6 c #480000",
"7 c #4A0000",
"8 c #4D0000",
"9 c #5C0000",
"0 c #5E0000",
"q c #5F0000",
"w c #630000",
"e c #690000",
"r c #720000",
"t c #780000",
"y c #7B0000",
"u c #7D0000",
"i c #7F0000",
"p c #8D0000",
"a c #940000",
"s c #9B0000",
"d c #A20000",
"f c #A50000",
"g c #A90000",
"h c #AB0000",
"j c #AD0000",
"k c #AE0000",
"l c #B20000",
"z c #B30000",
"x c #B60000",
"c c #B70000",
"v c #B80000",
"b c #B90000",
"n c #BE0000",
"m c #C20000",
"M c #C40000",
"N c #C50000",
"B c #C70000",
"V c #C80000",
"C c #CA0000",
"Z c #CB0000",
"A c #CC0000",
"S c #CD0000",
"D c #CE0000",
"F c #CF0000",
"G c #D60000",
"H c #D80000",
"J c #D90000",
"K c #DD0000",
"L c #DE0000",
"P c #E10000",
"I c #E20000",
"U c #E30000",
"Y c #E70000",
"T c #E80000",
"R c #E90000",
"E c #EA0000",
"W c #EB0000",
"Q c #EC0000",
"! c #EE0000",
"~ c #EF0000",
"^ c #F10000",
"/ c #F30000",
"( c #F50000",
") c #F70000",
"_ c #F80000",
"` c #F90000",
"' c #FA0000",
"] c #FB0000",
"[ c #FC0000",
"{ c #FD0000",
"} c red",
"| c None",
/* pixels */
"||||||||||||||||||||||||||||||||",
"||||||||||||||||||||||||||||||||",
"||||||||                       |",
"|||||{{{{{'{'{'{''{'{'{{'{'U    ",
"||||{{{{{{{{{{{{{{{{{{{{{{{J    ",
"||||Q{{{{'Uas({{{{{AtcT{{{{m    ",
"||||T{{{'ao %J{{{{{q  =J{{{k    ",
"||||Q{{{l   @A{{{{{6   *L{{g    ",
"||| Q{{Q&   @C{{{{{1    i{{k    ",
"||| Q{{f    @A{{{{{<    -U{x    ",
"||| Q{'q    #J{{{{{<    oC{C    ",
"||| T{/;    %U{{{{{;     l{J    ",
"||| U/AO    &T{{{{{;     tLx    ",
"|||         -/{{{{{;            ",
"|||         1({{{{{;            ",
"|||         8({{{{{;            ",
"||||        e'{{{{{;            ",
"||||        i'{{{{{;            ",
"|||||       a({{{{{;            ",
"||||||      d'{{{{{;            ",
"||||||||||||l({{{{{;        ||||",
"||||||||||||l'{{{{{<        ||||",
"||||||||||||l'{{{{{;        ||||",
"||||||||||||l'{{{{{;        ||||",
"||||||||||||c'{{{{{<        ||||",
"||||||||||| G'{{{{{w        ||||",
"|||||||||{{{'{{{{{{TCnN      |||",
"|||||||||{{{{{{{{{{{{{'       ||",
"|||||||||QUNgprq84<<146       ||",
"||||||||                       |",
"||||||||                       |",
"||||||||                       |"
};
